PathFileType	3	(X/Y/Z)	D:\minhoCalibration\240510\subject5_KPNP\preferred\preferred17.trc
DataRate	CameraRate	NumFrames	NumMarkers	Units	OrigDataRate	OrigDataStartFrame	OrigNumFrames
200.0	200.0	31	10	mm	200.0	205	170	
Frame#	Time	Left_Ankle_Outer1			Left_Ankle_Inner1			Left_Knee_Outer1			Left_Knee_Inner1			Left_Wrist1			Right_Wrist1			Right_Knee_Inner1			Right_Knee_Outer1			Right_Ankle_Inner1			Right_Ankle_Outer1			
		X1	Y1	Z1	X2	Y2	Z2	X3	Y3	Z3	X4	Y4	Z4	X5	Y5	Z5	X6	Y6	Z6	X7	Y7	Z7	X8	Y8	Z8	X9	Y9	Z9	X10	Y10	Z10	
205	1.015	-13.120075	81.351082	-603.2854	-60.246502	96.068687	-584.6062	124.66557	519.61395	-450.05038	45.464333	505.10574	-400.08945	126.23322	934.98297	-661.40387	-47.769028	1181.6577	-520.74866	-172.52377	1026.7131	-77.745049	-151.3669	1107.5858	-98.109688	-438.69586	1024.6693	280.61398	-464.68655	1115.5575	248.21173
206	1.02	-12.401381	81.327583	-603.39917	-59.863121	95.588799	-585.25061	120.23073	519.89288	-446.37497	40.10424	505.00464	-398.91846	126.65328	935.25708	-658.29614	-51.69223	1181.692	-520.82324	-176.8882	1029.3234	-79.519501	-156.71684	1110.2816	-101.03333	-438.64963	1016.5034	281.29523	-467.69019	1106.9419	249.72015
207	1.025	-12.097849	81.215523	-603.24988	-60.018494	94.880692	-585.61774	115.99484	520.26794	-443.35684	34.751656	504.87625	-398.19467	126.40747	935.06274	-654.80426	-54.462433	1182.4194	-522.71704	-181.5789	1030.7554	-81.358086	-164.41919	1112.9919	-104.37275	-437.26245	1009.0761	281.58881	-470.78745	1097.7617	251.00955
208	1.03	-11.69279	81.120323	-603.44574	-60.480137	94.16787	-585.72095	111.41555	520.53833	-440.72339	29.415894	504.87329	-397.88126	126.67487	935.01868	-651.51624	-56.55719	1183.8352	-524.80988	-185.74025	1031.5673	-83.123337	-173.99483	1115.5007	-107.93517	-436.65503	1001.9978	283.1864	-472.75876	1089.3325	252.61929
209	1.035	-12.093656	80.784683	-603.23621	-60.709541	93.830269	-586.72229	107.19225	520.88855	-438.85208	24.080793	504.582	-397.86566	126.37791	934.66229	-647.85773	-58.183071	1185.167	-526.58044	-189.73201	1031.7582	-84.317574	-185.11652	1116.6562	-111.93413	-435.09482	995.51099	283.9241	-474.52036	1081.8458	253.99557
210	1.04	-12.386686	80.527725	-603.25873	-61.407227	93.127213	-587.01617	102.74759	521.15466	-437.29709	18.978296	504.65579	-398.38986	126.26962	934.42212	-644.22986	-59.380642	1186.8917	-528.37921	-192.89713	1031.567	-85.183495	-196.72366	1116.4336	-115.92528	-433.73883	990.25671	286.36285	-476.44562	1074.1647	254.92725
211	1.045	-13.14574	80.207939	-603.10364	-62.16256	92.33474	-586.81445	98.835243	521.33069	-436.53152	14.236943	504.85803	-399.14856	126.17555	934.18402	-640.42694	-61.024475	1187.722	-529.88074	-195.27788	1031.2411	-85.806267	-207.6454	1113.9548	-119.13337	-430.92877	985.89581	288.25604	-478.55154	1065.7708	255.49251
212	1.05	-13.880548	79.858696	-603.07147	-63.329288	91.775108	-587.20544	95.207718	521.5636	-436.07166	9.9716549	504.95822	-400.17001	126.28584	934.04773	-636.81311	-61.062042	1189.4401	-532.3595	-198.07117	1030.3654	-86.466896	-217.30655	1110.4006	-121.93291	-428.90118	981.09241	290.64371	-480.74185	1056.9664	255.84236
213	1.055	-14.883944	79.562027	-602.91052	-64.323601	91.066216	-587.31268	91.998749	521.58038	-435.97141	5.8707175	505.41382	-401.13837	126.64465	934.19922	-633.39478	-64.037239	1190.6979	-532.9967	-202.27098	1028.4417	-87.688286	-224.7467	1106.8844	-123.87285	-426.85916	975.95886	293.21591	-482.8959	1047.444	256.05963
214	1.06	-15.820965	79.198624	-603.01227	-65.111496	90.090851	-587.5863	89.122818	521.46863	-436.15643	2.7714269	505.3743	-402.26514	127.21537	934.65948	-630.22577	-64.892403	1190.6024	-534.92651	-205.95999	1025.9283	-89.036331	-230.96371	1103.589	-125.24577	-424.4454	970.09875	295.2027	-484.96875	1037.1158	256.02917
215	1.065	-16.617821	78.740456	-603.19177	-66.325775	89.519722	-587.60944	86.559631	521.31305	-436.66934	0.24565996	505.69092	-403.48514	127.84009	935.20557	-627.38013	-67.494125	1191.0734	-535.65179	-210.23247	1023.0621	-90.496353	-236.49933	1100.3901	-126.41843	-421.74475	963.36896	294.48932	-486.90842	1025.9274	255.65082
216	1.07	-17.875372	77.904602	-602.84845	-67.499443	88.377228	-587.52557	84.527618	521.08545	-437.40073	-1.8912227	505.54526	-404.57205	128.60091	936.08124	-624.91382	-68.923508	1189.8359	-536.88788	-215.36945	1019.3951	-93.054527	-242.90065	1096.802	-127.51274	-419.78555	957.18018	296.15814	-488.82501	1014.2289	254.9436
217	1.075	-18.501425	77.248817	-602.8844	-67.816994	87.784782	-588.06738	83.114052	520.96216	-438.51276	-3.3578186	505.1813	-405.71762	129.24084	936.90991	-622.6886	-71.318092	1189.4724	-537.3913	-219.83119	1016.3574	-94.496895	-249.57558	1092.6246	-128.97104	-418.14273	949.61139	293.35638	-490.75723	1002.2832	253.90843
218	1.08	-18.791265	76.573715	-603.06586	-68.07238	87.013084	-587.96082	82.143135	520.7608	-439.71313	-4.5183215	504.87869	-406.86133	129.91548	937.81677	-620.8053	-73.70108	1188.2794	-537.51074	-223.81801	1013.405	-95.581902	-256.60849	1087.8837	-130.68542	-417.91003	942.16058	293.12827	-492.88361	990.64948	252.54503
219	1.085	-18.362179	76.727829	-603.33899	-68.157768	86.47998	-588.19672	81.610168	520.54071	-440.81454	-5.3125443	504.65118	-407.8847	130.41287	938.88507	-619.29614	-76.37793	1186.4546	-537.44153	-227.57858	1010.3267	-96.617783	-263.61728	1082.6924	-132.45068	-418.54752	933.78625	290.64874	-495.61517	979.37433	250.59682
220	1.09	-18.283651	76.461266	-603.31287	-68.041748	86.309624	-588.48755	81.443626	520.29565	-441.73209	-5.5801716	504.30472	-408.81238	130.99344	940.31946	-617.93768	-78.645515	1185.2791	-537.72089	-230.83777	1006.8737	-97.844322	-269.84363	1076.9957	-134.30878	-420.60434	924.91302	288.09366	-498.93719	968.12799	247.99513
221	1.095	-17.898737	76.592377	-603.1532	-67.576591	86.449677	-588.86127	81.62426	520.15155	-442.35007	-5.4681721	504.27151	-409.61514	131.58249	941.50665	-616.66602	-82.182381	1183.3594	-537.13702	-233.74445	1002.7952	-99.483162	-275.20438	1071.3223	-136.07153	-423.75858	915.2984	285.05789	-502.97845	956.87262	244.78775
222	1.1	-17.692596	76.338081	-603.05457	-67.424095	86.323036	-588.80255	82.388245	520.12378	-442.93466	-4.9721551	504.35101	-410.50049	131.96088	942.55621	-615.55255	-85.703064	1181.0662	-536.98602	-235.98093	998.17389	-101.18585	-279.26974	1065.6827	-137.70122	-427.83102	904.97064	281.42642	-507.48999	945.39594	240.94641
223	1.105	-17.326651	76.355278	-602.90594	-66.711586	86.570419	-589.22626	83.308365	520.23199	-443.45242	-4.1321111	504.633	-411.31128	133.19589	944.32092	-614.77313	-89.138046	1179.113	-536.87231	-238.68652	992.85382	-103.18859	-282.61111	1060.1996	-139.25928	-432.48553	893.94238	277.35645	-512.44122	933.61774	236.49193
224	1.11	-17.013342	76.363304	-602.5434	-66.476768	86.641411	-589.06909	84.332291	520.29852	-444.00858	-3.2584443	504.88483	-412.08743	133.66199	945.30438	-614.01245	-91.96035	1177.9187	-536.96161	-241.71933	987.0603	-105.79828	-285.52411	1054.7091	-140.94186	-437.55942	882.21936	272.59433	-517.7442	921.29175	231.34053
225	1.115	-16.699034	76.086594	-602.38312	-66.205589	86.887108	-589.41272	85.470139	520.55591	-444.60461	-1.807363	505.23669	-413.07404	134.3493	945.99445	-613.17255	-94.553223	1175.9285	-537.63269	-243.70203	981.10004	-107.54597	-288.10663	1049.0244	-142.82639	-443.02762	869.841	267.41635	-523.32642	908.51587	225.60956
226	1.12	-16.252848	75.973831	-602.40521	-65.826653	86.854912	-589.60309	86.736	520.75122	-445.45557	-0.61594677	506.065	-412.41193	134.75555	947.12787	-613.43341	-96.362656	1174.0194	-538.98029	-246.08745	974.88727	-109.86813	-290.46973	1043.2395	-144.80266	-448.69223	856.85443	261.54584	-528.95911	895.25446	219.23407
227	1.125	-16.069736	75.688507	-602.44659	-65.571083	86.775665	-589.70605	88.116638	520.85034	-446.45724	0.88858277	505.46097	-414.90933	135.47977	947.34473	-611.85779	-98.413567	1172.3081	-539.79065	-248.55125	968.76538	-112.70679	-292.78021	1037.2894	-146.85156	-454.78992	843.41382	254.88034	-534.69641	881.6416	212.40041
228	1.13	-15.946113	75.464043	-602.5697	-65.452438	86.712761	-589.78497	89.261246	520.89661	-447.5072	2.0824454	505.63605	-415.64206	136.29535	947.60797	-611.06323	-99.265137	1171.6451	-541.18164	-250.38615	962.4201	-114.66055	-294.95255	1031.2805	-148.97931	-460.80414	829.45172	248.32004	-540.45782	867.62213	205.01633
229	1.135	-16.019419	75.273773	-602.52649	-65.498711	86.547356	-589.94238	90.422302	520.82385	-448.80258	3.5222433	505.64618	-416.8327	137.99356	947.34515	-611.67804	-99.838982	1170.9229	-542.63116	-252.68489	956.18127	-117.4687	-297.12473	1025.1823	-151.06906	-466.92068	814.85565	240.83687	-546.24536	853.48499	197.21619
230	1.14	-16.238626	75.069923	-602.58356	-65.476257	86.334938	-590.17828	91.405891	520.66418	-450.2283	4.478591	505.64395	-417.66226	138.19434	949.15295	-609.76044	-100.55178	1170.8971	-543.56763	-254.50381	949.73535	-119.81856	-299.10733	1018.8433	-153.11058	-473.17059	800.03052	232.69911	-551.89697	839.06287	188.91982
231	1.145	-16.519411	74.819092	-602.61823	-65.604477	85.920525	-589.63068	92.301598	520.43066	-451.73709	5.4628148	505.26727	-418.78461	138.98177	949.46014	-609.21979	-101.01432	1170.8142	-544.17426	-256.10947	942.85675	-121.89115	-301.30386	1012.4236	-155.20522	-479.11362	784.90558	224.59419	-557.40302	824.53729	180.2536
232	1.15	-15.899316	75.132271	-603.63501	-65.924438	85.660156	-589.58789	93.031609	520.13293	-453.30817	6.3246956	505.30219	-419.93268	139.93277	949.93542	-607.77399	-100.93823	1170.5425	-545.49554	-257.94086	935.75549	-124.5639	-302.73267	1005.4042	-157.50047	-485.21689	769.58789	215.36082	-562.78442	810.00427	171.17235
233	1.155	-17.458328	74.160782	-602.47357	-66.176865	85.456055	-589.53558	93.479324	520.00885	-454.69611	7.0912066	505.09323	-421.1127	140.53835	950.94122	-606.64038	-101.72684	1170.0236	-545.68158	-259.72256	928.34546	-127.47559	-304.46945	998.4502	-159.76288	-490.75427	753.63519	206.21484	-568.18243	795.39618	161.70668
234	1.16	-17.507757	74.256485	-602.84772	-66.326431	85.397446	-589.5191	94.265884	519.76044	-456.30844	7.4776258	505.05121	-422.60999	143.67545	953.67291	-603.26727	-102.24368	1169.2467	-546.09357	-261.8053	920.7757	-131.04721	-306.10135	991.2345	-162.04628	-496.48593	738.2121	196.20056	-573.29175	780.64734	151.88542
235	1.165	-17.443974	74.252708	-603.25854	-66.638939	85.141289	-589.48834	94.606735	519.56689	-457.75534	8.1757965	505.42706	-423.74185	143.77187	954.47162	-602.13007	-102.73773	1168.5691	-546.43317	-263.46326	912.51227	-134.08586	-307.66949	983.86957	-164.45395	-501.81586	722.66077	185.90607	-578.23425	765.54803	141.64375
